PathFileType	4	(X/Y/Z)	C:\Users\Biomechanik\SynologyDrive\AlexP\Athlete_03\Athlete_3_25_03_31\Deadlift_bar_01\marker_experimental.trc
DataRate	CameraRate	NumFrames	NumMarkers	Units	OrigDataRate	OrigDataStartFrame	OrigNumFrames
200.000000	200.000000	4	55	mm	200.000000	366	1464
Frame#	Time	BL			BR			GLAB			RFHD			LFHD			C7			T6			SPINMOL			SPINM2			SPINM3			T12			BELTOL			BELT2			BELT3			SACROL			SACR2			SACR3			LTHOL			LTH2			LTH3			LSHAOL			LSHA2			LSHA3			LHEE			LTOE			LM5			RTHOL			RTH2			RTH3			RSHAOL			RSHA2			RSHA3			RHEE			RTOE			RM5			STRN			XIPH			LACR			LUAOL			LUA2			LUA3			LLAOL			LLA2			LLA3			LWRR			LWRU			RACR			RUAOL			RUA2			RUA3			RLAOL			RLA2			RLA3			RWRR			RWRU			
		X1	Y1	Z1	X2	Y2	Z2	X3	Y3	Z3	X4	Y4	Z4	X5	Y5	Z5	X6	Y6	Z6	X7	Y7	Z7	X8	Y8	Z8	X9	Y9	Z9	X10	Y10	Z10	X11	Y11	Z11	X12	Y12	Z12	X13	Y13	Z13	X14	Y14	Z14	X15	Y15	Z15	X16	Y16	Z16	X17	Y17	Z17	X18	Y18	Z18	X19	Y19	Z19	X20	Y20	Z20	X21	Y21	Z21	X22	Y22	Z22	X23	Y23	Z23	X24	Y24	Z24	X25	Y25	Z25	X26	Y26	Z26	X27	Y27	Z27	X28	Y28	Z28	X29	Y29	Z29	X30	Y30	Z30	X31	Y31	Z31	X32	Y32	Z32	X33	Y33	Z33	X34	Y34	Z34	X35	Y35	Z35	X36	Y36	Z36	X37	Y37	Z37	X38	Y38	Z38	X39	Y39	Z39	X40	Y40	Z40	X41	Y41	Z41	X42	Y42	Z42	X43	Y43	Z43	X44	Y44	Z44	X45	Y45	Z45	X46	Y46	Z46	X47	Y47	Z47	X48	Y48	Z48	X49	Y49	Z49	X50	Y50	Z50	X51	Y51	Z51	X52	Y52	Z52	X53	Y53	Z53	X54	Y54	Z54	X55	Y55	Z55	

367	1.83	309.4915771484375	716.9536743164064	-2228.47802734375	277.8545532226562	699.8423461914062	-206.9939727783203	420.4963073730469	1538.779663085938	-1200.791748046875	386.1856689453125	1581.780639648438	-1137.29296875	391.5542297363281	1578.737915039062	-1273.709350585938	152.8581237792969	1450.63623046875	-1212.753295898438	79.94703674316406	1282.540161132812	-1224.52294921875	74.29607391357422	1245.621948242188	-1245.545532226562	66.33991241455078	1237.853149414062	-1196.222778320312	73.52842712402344	1181.1748046875	-1230.55029296875	78.74515533447266	1124.904418945312	-1228.95263671875	56.4638786315918	1102.578735351562	-1245.796752929688	55.40491104125977	1099.814819335938	-1195.468994140625	41.1873779296875	1041.355590820312	-1224.642700195312	31.92550849914551	972.4791259765626	-1248.6669921875	30.6579418182373	969.4604492187501	-1197.255859375	12.51761245727539	912.8010864257814	-1226.52197265625	146.0270538330078	675.1697387695314	-1410.721801757812	101.6849670410156	615.1679687500001	-1381.7626953125	150.0006256103516	615.0603637695314	-1396.618530273438	146.6123657226562	324.8014526367189	-1409.148559570312	97.92507934570312	262.5010681152345	-1398.006591796875	147.3399963378906	262.9869995117189	-1405.738037109375	76.63928985595703	68.26518249511727	-1318.63720703125	293.5445861816406	48.48289871215828	-1332.37109375	242.035888671875	29.38922882080087	-1431.243530273438	120.7310943603516	685.8845214843751	-1031.9736328125	182.6720886230469	638.1390991210939	-1015.097961425781	138.9780883789062	627.1502685546876	-1036.371704101562	129.4152221679688	342.8135986328126	-1018.918640136719	161.6195831298828	271.1781311035157	-1013.704711914062	116.1315307617188	282.3555297851563	-1030.031127929688	79.55747222900391	61.63127899169929	-1118.83203125	292.0187072753906	48.29600143432624	-1096.306762695312	234.4208679199219	38.97716522216803	-999.4021606445312	315.1297912597656	1337.241943359375	-1212.75732421875	321.6015319824219	1194.436157226562	-1212.599609375	224.7977752685547	1408.67724609375	-1384.381591796875	231.20361328125	1248.669677734375	-1481.102783203125	224.4058837890625	1185.938110351562	-1498.864379882812	266.0533142089844	1194.200805664062	-1469.492065429688	281.3821105957031	983.4969482421876	-1506.130981445312	239.4099884033203	916.7987060546876	-1512.108032226562	288.1322631835938	922.1431274414064	-1503.500244140625	316.9447021484375	821.5317382812501	-1496.531860351562	292.9258117675781	813.3963012695314	-1421.457763671875	226.2795715332031	1399.765869140625	-1049.182250976562	218.8309173583984	1245.603759765625	-957.4801025390624	247.9303588867188	1185.330200195312	-963.2274780273436	201.6450805664062	1184.700073242188	-937.0570678710936	253.1467132568359	966.1807250976564	-929.2557983398436	312.2198486328125	912.76708984375	-927.2128295898438	262.9186096191406	904.1025390625001	-929.6915283203125	309.2017517089844	822.8158569335939	-931.3399658203125	284.6749572753906	798.0410156250001	-1005.13427734375	
368	1.835	309.0320434570312	716.4617309570314	-2228.504150390625	277.4796447753906	699.5927734375	-207.0291442871093	422.2571105957031	1537.801879882812	-1200.744384765625	388.0479125976562	1580.90234375	-1137.256469726562	393.4525451660156	1577.836669921875	-1273.6728515625	154.3489837646484	1450.560180664062	-1212.767211914062	80.65999603271484	1282.83349609375	-1224.496459960938	74.87358093261719	1245.9736328125	-1245.528686523438	66.94863128662109	1238.226684570312	-1196.19775390625	73.79145812988281	1181.514770507812	-1230.530883789062	78.68287658691406	1125.138305664062	-1228.970947265625	56.30500030517578	1102.904663085938	-1245.833740234375	55.22944641113281	1100.134521484375	-1195.52783203125	40.7540397644043	1041.755859375	-1224.74365234375	31.19544792175293	972.5982666015626	-1248.776611328125	29.89334106445312	969.5742187500001	-1197.38134765625	11.86732959747314	912.8803710937501	-1226.655883789062	145.7818145751953	674.9757690429689	-1410.975708007812	101.4956130981445	614.8619384765626	-1382.140747070312	149.8479461669922	614.8796386718751	-1396.87158203125	146.7788543701172	324.7515869140626	-1409.282836914062	98.06784820556641	262.4677734375001	-1398.14599609375	147.4842224121094	262.9372863769532	-1405.849853515625	76.63510131835938	68.26731109619149	-1318.649047851562	293.5363464355469	48.47429275512703	-1332.374877929688	242.035888671875	29.39176368713388	-1431.240234375	120.3640518188477	685.5874633789064	-1031.844970703125	182.4690093994141	638.0351562500001	-1015.014709472656	138.8173980712891	626.8908691406251	-1036.2666015625	129.629150390625	342.7934570312501	-1018.831848144531	161.7839202880859	271.1357421875001	-1013.634643554688	116.302360534668	282.3408508300782	-1029.957275390625	79.53746795654297	61.65211486816413	-1118.818969726562	292.0203552246094	48.29543304443366	-1096.310424804688	234.4226837158203	38.97905349731452	-999.406494140625	316.1721801757812	1336.526245117188	-1212.711181640625	322.032958984375	1193.6357421875	-1212.522705078125	226.2593841552734	1408.306762695312	-1384.329956054688	232.3735656738281	1248.400024414062	-1481.052490234375	225.4542388916016	1185.7021484375	-1498.83544921875	267.0452575683594	1193.820190429688	-1469.307495117188	281.7961120605469	983.1516723632814	-1506.062133789062	239.5950164794922	916.6110839843751	-1512.149291992188	288.3368530273438	921.7891845703126	-1503.488891601562	316.8069458007812	821.0829467773439	-1496.567138671875	292.7445068359375	812.9815063476564	-1421.510375976562	227.6334991455078	1399.414794921875	-1049.217895507812	219.8844451904297	1245.4248046875	-957.4714355468749	248.811279296875	1185.120361328125	-963.1740722656249	202.5745697021484	1184.548461914062	-936.9827270507811	253.4992828369141	965.9573364257814	-929.2232055664061	312.4043884277344	912.3781127929688	-927.2689208984375	263.0819396972656	903.8522949218751	-929.6430053710938	309.1056823730469	822.4314575195314	-931.3218383789062	284.4109802246094	797.7457885742189	-1005.122375488281	
369	1.84	308.5755615234375	715.9546508789064	-2228.534423828125	277.1086120605469	699.33251953125	-207.0654907226562	424.0298156738281	1536.794677734375	-1200.696655273438	389.9245910644531	1579.9970703125	-1137.219848632812	395.3589172363281	1576.905395507812	-1273.622436523438	155.8498382568359	1450.468872070312	-1212.778564453125	81.37818908691406	1283.119995117188	-1224.466186523438	75.44954681396484	1246.318725585938	-1245.509033203125	67.55774688720703	1238.591552734375	-1196.170043945312	74.05317687988281	1181.85009765625	-1230.507568359375	78.61740875244141	1125.365966796875	-1228.984252929688	56.13706207275391	1103.227172851562	-1245.865112304688	55.05129623413086	1100.4482421875	-1195.583618164062	40.3199577331543	1042.151123046875	-1224.838256835938	30.45598411560059	972.7067260742189	-1248.883422851562	29.12181091308594	969.6735229492189	-1197.506103515625	11.21736145019531	912.9451293945314	-1226.791137695312	145.5354461669922	674.7789306640626	-1411.231689453125	101.30517578125	614.5494384765626	-1382.525024414062	149.6919708251953	614.6956787109376	-1397.130615234375	146.9470977783203	324.701141357422	-1409.41943359375	98.21240997314453	262.4339599609376	-1398.286743164062	147.6302947998047	262.8867797851564	-1405.963500976562	76.63095855712891	68.26959991455087	-1318.6611328125	293.5264282226562	48.46483612060555	-1332.379760742188	242.0354309082031	29.39476776123056	-1431.236328125	119.9972915649414	685.2854003906251	-1031.716064453125	182.2656097412109	637.9262084960939	-1014.930725097656	138.6534729003906	626.6306762695314	-1036.161376953125	129.8417663574219	342.7731933593751	-1018.745666503906	161.9472961425781	271.0940551757813	-1013.565795898438	116.4721145629883	282.3266906738282	-1029.8837890625	79.51526641845703	61.67451858520515	-1118.805786132812	292.0221557617188	48.29510116577155	-1096.315185546875	234.4248046875	38.98162078857428	-999.4114990234375	317.217529296875	1335.79052734375	-1212.663330078125	322.4610595703125	1192.81689453125	-1212.442138671875	227.7245483398438	1407.917236328125	-1384.276245117188	233.5468597412109	1248.112548828125	-1481	226.5055847167969	1185.447875976562	-1498.803833007812	268.040283203125	1193.416748046875	-1469.119262695312	282.2108459472656	982.7906494140626	-1505.997192382812	239.7839508056641	916.4049682617189	-1512.188720703125	288.5420532226562	921.4188842773439	-1503.47705078125	316.6733703613281	820.6173095703126	-1496.6044921875	292.5677490234375	812.5504150390626	-1421.564453125	228.9930725097656	1399.044921875	-1049.249877929688	220.9433441162109	1245.2275390625	-957.4608764648436	249.6990051269531	1184.89697265625	-963.1076660156249	203.5130157470703	1184.382934570312	-936.9019775390624	253.8545684814453	965.7164306640626	-929.1868286132811	312.5913696289062	911.9706420898438	-927.3226318359375	263.2485656738281	903.5834960937501	-929.5928344726562	309.0128784179688	822.0310058593751	-931.3075561523438	284.1454772949219	797.4415893554689	-1005.110778808594	
370	1.845	308.1227416992188	715.4318847656251	-2228.568603515625	276.7419128417969	699.0608520507812	-207.1029968261718	425.8136901855469	1535.75830078125	-1200.648803710938	391.8150634765625	1579.06494140625	-1137.183471679688	397.2720642089844	1575.944213867188	-1273.55859375	157.3598937988281	1450.361328125	-1212.787231445312	82.10141754150391	1283.398803710938	-1224.432373046875	76.02452850341797	1246.655639648438	-1245.486450195312	68.16607666015625	1238.94677734375	-1196.139892578125	74.31305694580078	1182.180053710938	-1230.480590820312	78.54868316650391	1125.587280273438	-1228.992553710938	55.96168899536133	1103.54638671875	-1245.891357421875	54.87038421630859	1100.755981445312	-1195.636108398438	39.8846549987793	1042.541137695312	-1224.926391601562	29.70784187316895	972.8054199218751	-1248.987426757812	28.34479141235352	969.7596435546876	-1197.629150390625	10.56535911560059	912.9978637695314	-1226.927368164062	145.2857360839844	674.5789794921876	-1411.48828125	101.1139831542969	614.2296752929689	-1382.910888671875	149.5320892333984	614.5078735351564	-1397.39404296875	147.1186065673828	324.6499023437501	-1409.558227539062	98.35984802246094	262.3998107910157	-1398.428833007812	147.7793273925781	262.8353881835939	-1406.0791015625	76.62693786621094	68.27210235595712	-1318.673217773438	293.5148620605469	48.45453262329109	-1332.385620117188	242.0345306396484	29.39820480346689	-1431.23193359375	119.6305923461914	684.9781494140626	-1031.587768554688	182.061279296875	637.8120727539064	-1014.845581054688	138.485595703125	626.3699340820314	-1036.056518554688	130.0528411865234	342.7528991699219	-1018.660339355469	162.1093139648438	271.0529785156251	-1013.497802734375	116.6407165527344	282.3133544921876	-1029.81103515625	79.49170684814453	61.6978836059571	-1118.792602539062	292.0240783691406	48.29520416259772	-1096.3212890625	234.4271697998047	38.98509979248053	-999.4168090820312	318.2651062011719	1335.03466796875	-1212.614013671875	322.8858337402344	1191.98193359375	-1212.358276367188	229.1927185058594	1407.508666992188	-1384.22021484375	234.7224273681641	1247.806762695312	-1480.945434570312	227.5581817626953	1185.175415039062	-1498.770263671875	269.0377807617188	1192.9912109375	-1468.92919921875	282.6255187988281	982.4132080078126	-1505.936767578125	239.9767456054688	916.1798706054689	-1512.226318359375	288.74755859375	921.0312500000001	-1503.464111328125	316.5436096191406	820.1341552734376	-1496.642944335938	292.395263671875	812.1024169921876	-1421.618896484375	230.3571929931641	1398.656005859375	-1049.278198242188	222.0066070556641	1245.01123046875	-957.4482421874999	250.5931701660156	1184.658325195312	-963.0285034179686	204.4603729248047	1184.203369140625	-936.8140869140624	254.2111053466797	965.4567871093751	-929.1468505859374	312.77978515625	911.5426635742188	-927.373291015625	263.4172973632812	903.2947387695314	-929.5414428710938	308.9234008789062	821.6143188476564	-931.2980346679688	283.8797302246094	797.1270141601564	-1005.099975585938	
